<svg xmlns="http://www.w3.org/2000/svg" width="682.7" height="682.7" version="1.0" viewBox="0 0 512 512">
  <path d="M45 31c-10 3-19 11-24 21-5 9-6 16-6 48v30h482V67l-4-7c-6-14-21-25-37-29l-31-1h-24v23l-1 26-4 7c-3 3-5 3-9 4-5 0-6 0-9-2-7-5-7-5-8-33V30H130v22c0 26-1 29-5 34-7 6-18 5-23-3-2-3-2-5-3-28V30H74l-29 1zM15 305l1 144 2 6c5 13 13 21 24 25 5 1 16 2 210 2h205l6-3c14-4 26-14 31-26l4-6V161H15v144zm141-87 4 4c2 3 3 5 3 23 0 19 0 21-2 25-3 8-4 8-30 8-31 1-30 2-30-30s-1-31 31-31l24 1zm119 0 4 4c2 3 2 5 3 24 0 23-1 27-5 30-3 2-4 2-26 2-32 1-31 2-31-30s-1-31 30-31l25 1zm121 0c6 3 6 6 6 30 0 32 2 30-31 30-22 1-23 0-26-2-4-3-5-7-5-29 0-21 1-24 6-28 2-2 3-2 25-2 18 0 23 0 25 2zM158 356c4 3 5 7 5 28s-1 23-5 28c-3 2-3 2-26 3-21 0-22 0-25-2-6-3-6-5-6-30 0-23 0-23 3-25l5-4a199 199 0 0 1 49 2zm118-1c5 4 6 6 6 29l-1 24-4 5c-3 2-5 2-26 2-33 0-31 1-31-32 0-23 0-23 3-25l5-4a199 199 0 0 1 48 1zm117-1c2 1 5 2 6 4l3 2v49l-3 3-3 2h-49l-2-2c-5-4-5-8-5-30 1-29 0-29 31-29l22 1z"/>
</svg>
