<svg xmlns="http://www.w3.org/2000/svg" width="682.7" height="682.7" version="1.0" viewBox="0 0 512 512">
  <path d="M126 29A143 143 0 0 0 6 139c-13 49-4 97 26 142 19 29 44 55 89 96l121 103c4 2 6 3 14 3 9 0 10-1 14-3l121-103c46-41 70-67 89-96 30-45 39-93 27-142A145 145 0 0 0 344 30c-35 8-61 25-85 56l-3 4-3-4c-24-30-50-47-83-55-10-2-33-3-44-2zm34 31c28 5 53 21 72 48l9 13c7 10 23 10 30 0l9-13c27-37 63-54 104-49 44 6 79 37 92 83 11 37 6 75-13 109-16 29-43 59-89 101L256 453 138 352C67 287 38 247 32 201c-5-31 1-63 17-89 23-39 68-60 111-53z"/>
</svg>
