<svg xmlns="http://www.w3.org/2000/svg" width="682.7" height="682.7" version="1.0" viewBox="0 0 512 512">
  <path d="m426 65-30 28-27 27-13-5a277 277 0 0 0-140-16c-51 8-96 28-138 62a344 344 0 0 0-78 92c-1 6 1 10 9 22 24 36 58 71 93 94l11 7-24 24c-20 21-24 25-25 28-1 6 1 11 5 15s9 6 15 5c3-1 22-20 183-180C399 136 446 88 447 85c2-7 0-14-6-18-3-3-11-4-15-2zm-136 66c17 2 36 7 51 13l3 1-16 16-16 17-3-2c-5-4-22-11-29-13-11-3-35-3-45-1-19 5-33 13-47 26a96 96 0 0 0-26 47c-2 10-2 33 1 44 2 8 9 23 13 30l2 3-20 20-21 20-9-6c-33-21-67-52-88-83l-5-7 5-7c18-26 48-57 75-75a253 253 0 0 1 175-43zm-20 63 18 7-43 44-44 43-3-5c-3-7-6-19-6-27 0-41 39-72 78-62zm144-28-11 11 9 8c20 16 47 45 62 66l3 5-4 6c-17 25-47 56-73 75a244 244 0 0 1-189 42l-9-1-13 13-12 13a289 289 0 0 0 116 10 324 324 0 0 0 209-138c13-19 13-21 1-39a351 351 0 0 0-77-82l-12 11z"/>
  <path d="m334 246-14 14-1 8a66 66 0 0 1-51 51l-8 1-14 14-14 14c1 2 17 4 24 4 25 0 49-10 68-28 19-20 27-40 27-67 0-12-1-25-3-25l-14 14z"/>
</svg>
