<svg xmlns="http://www.w3.org/2000/svg" width="682.7" height="682.7" version="1.0" viewBox="0 0 512 512">
  <path d="M52 2C33 5 16 19 7 36c-8 16-7 1-7 220s-1 204 7 220c6 12 17 23 29 29 16 7 1 7 220 7s204 1 220-7c12-6 23-17 29-29 7-16 7-1 7-220s1-204-7-220c-6-12-17-23-29-29-16-8 0-7-221-7C86 0 57 0 51 2zm409 31c7 4 14 11 18 18l2 6 1 92v131l-35-43-38-47a40 40 0 0 0-46-9c-6 2-10 6-78 74-56 56-72 71-73 71a2329 2329 0 0 1-60-48c-5-2-7-3-16-3-17 1-11-4-97 70l-9 7V57l3-6c5-10 15-18 25-20l200-1h197l6 3zm-77 175 50 61 48 59v126l-3 6c-4 8-11 15-18 19l-7 2H57l-6-2c-7-4-14-11-18-19l-3-6v-63l44-37c62-53 58-49 61-49l5 1a1018 1018 0 0 1 66 54c4 2 10 2 15 0l77-75 76-76c3-2 7-2 10-1z"/>
  <path d="M149 64c-15 3-28 9-39 21a68 68 0 0 0-21 50l1 14a73 73 0 0 0 93 56c20-7 34-19 43-37 6-13 8-19 8-32-1-9-1-13-3-19-7-25-25-43-49-51-8-2-25-3-33-2zm25 31c19 6 32 27 29 47a42 42 0 0 1-80 11c-4-8-5-21-2-29a43 43 0 0 1 53-29z"/>
</svg>
