<svg xmlns="http://www.w3.org/2000/svg" width="682.7" height="682.7" version="1.0" viewBox="0 0 512 512">
  <path d="M235 97c-59 5-110 26-157 64a394 394 0 0 0-78 91v7a344 344 0 0 0 78 92 287 287 0 0 0 215 63c34-5 66-16 95-32 44-24 85-62 114-106 13-19 13-21 0-40s-24-33-42-51a287 287 0 0 0-225-88zm46 32c46 5 92 25 131 56 21 16 46 43 60 63l5 8-4 6c-17 25-47 56-74 75-49 35-108 51-165 46s-110-31-156-76c-13-12-30-31-38-43l-5-8 5-7a272 272 0 0 1 110-95c40-21 86-29 131-25z"/>
  <path d="M239 162c-20 3-36 12-51 27a96 96 0 0 0-26 46c-2 9-2 33 0 42 5 18 13 33 26 46a96 96 0 0 0 162-46c2-9 2-33 0-42-3-10-8-21-13-30-6-10-20-24-31-31a97 97 0 0 0-67-12zm31 32c21 4 40 22 47 44 3 9 3 27 0 37-6 19-23 36-42 42-6 2-10 3-19 3l-20-3a63 63 0 0 1-25-106c16-16 37-22 59-17z"/>
</svg>
