<svg xmlns="http://www.w3.org/2000/svg" width="682.7" height="682.7" version="1.0" viewBox="0 0 512 512">
  <path d="M337 50c-41 7-73 37-84 77-2 7-2 11-2 25v21l1 4-7-1A296 296 0 0 1 36 69l-5 9a105 105 0 0 0 29 124l7 6h-4a108 108 0 0 1-42-12l3 27c9 35 35 62 69 73l9 4c-5 2-20 3-31 3l-13-1 1 3a106 106 0 0 0 88 69l7 1c0 2-22 16-36 22-31 16-62 23-98 22l-19-1 5 4 42 21c56 23 121 28 183 14 91-20 166-83 204-171 16-38 24-75 25-115v-18l7-6a262 262 0 0 0 44-48l-7 2c-13 6-44 14-49 13l3-3a106 106 0 0 0 39-52c0-1-6 1-14 5-13 7-31 13-45 16l-7 2-6-5c-24-22-57-32-88-26z"/>
</svg>
