<svg xmlns="http://www.w3.org/2000/svg" width="682.7" height="682.7" version="1.0" viewBox="0 0 512 512">
  <path d="M242 1c-32 4-59 17-81 39a132 132 0 0 0-38 120c6 28 18 50 38 70a132 132 0 0 0 120 38c27-6 50-18 70-38a132 132 0 0 0 38-120c-4-18-11-36-21-51a141 141 0 0 0-86-56c-8-2-33-3-40-2zm38 32c20 5 37 14 50 28 14 13 23 30 28 50 3 11 3 37 0 48-5 20-14 37-28 50a99 99 0 0 1-50 28c-11 3-37 3-48 0a105 105 0 0 1 48-204zm-78 269A196 196 0 0 0 31 488c0 11 0 12 2 16 1 3 3 5 6 6 4 2 5 2 217 2s213 0 217-2c3-1 5-3 6-6 2-4 2-5 2-16-3-50-22-93-56-128-32-34-74-54-120-59-15-1-89-1-103 1zm102 29a166 166 0 0 1 146 149v2H62v-3a169 169 0 0 1 114-141c9-3 21-6 32-7h96z"/>
</svg>
